<svg width="358" height="408" viewBox="0 0 358 408" fill="none" xmlns="http://www.w3.org/2000/svg">
<path d="M328.032 142.488C319.966 138.866 317.548 139.178 304.101 140.912C301.453 141.253 298.369 141.651 294.701 142.124C293.593 140.308 289.591 133.948 286.047 131.049C285.941 130.96 285.814 130.898 285.679 130.869C285.543 130.84 285.402 130.844 285.268 130.881L283.371 131.441C283.353 131.303 283.335 131.165 283.315 131.005C282.798 125.975 282.414 121.697 282.161 118.171C288.052 106.189 296.302 90.4526 298.671 88.7603C300.357 87.5524 302.541 87.7719 305.068 88.0289C306.025 88.127 307.027 88.2191 308.07 88.2596L308.379 88.2197C310.721 88.3024 313.458 88.3807 315.303 86.6045C316.62 85.3392 317.271 83.3325 317.304 80.5195C317.34 77.6733 316.513 74.8829 314.932 72.5159C313.931 70.8037 313.319 69.7638 314.02 67.9719C314.453 66.9021 315.939 65.953 317.511 64.9463C320.333 63.1491 323.842 60.9019 323.57 56.4385C323.222 50.7611 317.632 49.792 313.137 49.008C310.228 48.4973 307.475 48.0248 306.987 46.5027C306.251 44.4067 306.996 42.5974 307.787 40.689C308.579 38.7806 309.578 36.4958 308.715 33.8684C307.687 30.5047 303.103 29.7553 298.67 28.9982C294.498 28.2774 290.184 27.54 289.204 24.9044C288.432 22.6655 288.038 20.3138 288.039 17.9456C287.894 14.5613 287.762 11.6414 283.815 9.31835C277.886 5.81728 271.83 8.47428 266.976 10.5919C263.157 12.2496 259.859 13.7002 257.703 11.8921C256.443 10.6691 255.354 9.2804 254.467 7.76417C252.046 4.07897 249.283 -0.0866184 243.597 1.00768C239.676 1.78121 238.887 5.60065 238.301 8.3799C238.185 9.21478 237.953 10.0293 237.611 10.7997C237.139 11.2534 236.521 11.5233 235.867 11.5606C233.931 11.9369 231.923 11.6225 230.194 10.6721C229.419 9.91128 228.751 9.04857 228.208 8.10771C226.122 4.93877 222.965 0.159662 217.085 2.54931C215.1 3.35273 213.339 4.62469 211.952 6.25653C210.565 7.88837 209.594 9.83161 209.121 11.9203C208.492 14.6352 208.812 17.2045 209.965 18.466C211.169 19.7337 212.557 20.812 214.083 21.6644C216.196 22.9537 216.893 23.4815 216.348 24.9502C215.803 26.4189 213.699 27.541 211.49 28.6649C208.496 30.2162 205.092 31.9254 204.124 35.4415C203.884 36.0405 203.829 36.6977 203.966 37.3282C204.103 37.9587 204.427 38.5335 204.894 38.9783C207.111 40.8951 213.045 39.8271 222.522 35.7735L223.385 35.4175C218.825 40.4571 213.833 46.0304 209.126 51.3689C209.362 49.9126 209.049 48.4204 208.248 47.1817C207.898 46.7409 207.445 46.3939 206.928 46.1717C206.411 45.9495 205.847 45.859 205.287 45.9085C201.155 46.0449 194.212 51.5783 190.492 59.6097C188.158 64.6422 187.639 68.485 188.975 70.7135C189.421 71.4435 190.101 72.0009 190.904 72.2946C190.32 73.0108 189.894 73.497 189.691 73.8261C189.129 74.4624 188.709 75.2117 188.46 76.0237C188.211 76.8357 188.138 77.6917 188.247 78.534C188.703 80.8061 190.98 82.1908 192.812 83.2948L193.76 83.8718C194.917 84.62 195.213 85.1063 195.26 85.38C195.328 85.9073 194.643 86.7414 193.835 87.708L193.019 88.6989C191.963 90.0005 191.032 91.3675 191.339 92.8429C191.576 94.0477 192.615 95.1491 194.634 96.3456C195.524 103.969 194.055 113.459 191.017 119.724C187.994 120.685 188.564 123.478 189.082 125.963C189.512 127.682 189.624 129.465 189.411 131.224C189.073 133.482 188.633 141.009 196.81 143.416C200.008 144.355 207.136 144.415 214.839 143.422C216.983 143.146 219.172 142.77 221.34 142.316C222.211 146.178 223.002 150.959 223.659 155.513C220.244 158.488 216.41 160.946 212.281 162.806C211.099 163.254 210 163.896 209.029 164.706C208.019 165.908 208.249 172.754 208.919 178.134C207.706 180.463 206.78 182.93 206.16 185.482C198.709 178.762 191.603 171.999 188.897 168.548C183.576 161.872 178.663 154.882 174.183 147.615C172.464 144.771 168.614 137.96 164.958 131.474C165.328 131.257 165.687 131.02 166.032 130.765C167.973 131.601 170.098 131.913 172.197 131.671C174.174 131.401 176.048 130.63 177.642 129.431C179.782 127.789 181.462 125.621 182.518 123.139C183.574 120.657 183.971 117.944 183.671 115.263C183.016 110.185 179.808 106.182 174.554 104.027C172.78 103.35 170.88 103.065 168.985 103.19C167.091 103.316 165.245 103.85 163.576 104.755C162.062 105.48 160.706 106.499 159.587 107.751C158.468 109.003 157.609 110.465 157.058 112.051L154.127 113C151.363 109.639 147.981 107.814 145.471 108.499C144.321 108.845 143.313 109.551 142.595 110.513C142.319 110.946 141.937 111.302 141.486 111.548C141.034 111.794 140.528 111.921 140.014 111.918C139.431 111.88 138.854 111.775 138.296 111.603C136.429 111.133 133.874 110.483 131.268 112.509C130.447 113.149 129.692 113.871 129.017 114.664C128.092 115.716 127.705 116.15 125.084 116.243C124.338 116.245 123.602 116.415 122.932 116.742C122.261 117.069 121.674 117.543 121.213 118.129C120.834 118.605 120.366 119.002 119.834 119.296C119.302 119.591 118.717 119.778 118.113 119.846L116.863 120.007C113.787 120.462 113.165 120.612 109.481 122.951C104.709 125.979 101.285 128.262 100.706 130.003C100.413 131.182 100.392 132.412 100.645 133.6C98.5235 134.41 96.2744 135.224 94.1639 135.939C86.7143 138.45 86.3014 140.309 87.1192 144.574C87.1488 144.803 87.1754 145.01 87.2852 145.229C78.219 146.636 69.8684 150.989 63.5228 157.615C57.1217 164.372 54.7085 170.604 54.5734 175.702C42.8378 179.138 31.025 191.919 28.5222 212.462C28.4949 212.689 28.5589 212.918 28.7001 213.099C28.8413 213.279 29.0482 213.397 29.2757 213.425L29.4935 213.397C29.6846 213.373 29.8625 213.287 29.999 213.151C30.1356 213.015 30.223 212.838 30.2476 212.647C32.6338 193.099 43.6345 180.889 54.649 177.464C54.8536 179.961 55.7385 182.354 57.2075 184.383C60.26 188.535 65.2849 189.996 69.4274 187.959C74.6976 185.357 74.4398 182.092 74.0765 180.81C73.0851 177.278 67.6378 174.077 59.1204 174.813C58.1866 174.895 57.2588 175.034 56.3421 175.23C56.5752 170.62 58.9362 164.978 64.8032 158.779C70.9904 152.403 79.1015 148.237 87.8881 146.922C88.2599 147.907 88.8889 148.774 89.7097 149.433C90.5305 150.091 91.513 150.518 92.5548 150.668C93.6131 150.741 99.1786 149.254 110.704 146.09C113.139 148.434 116.668 149.587 118.945 148.722C119.407 148.555 119.829 148.294 120.187 147.958C120.544 147.621 120.829 147.215 121.024 146.764C121.637 147.282 122.349 147.669 123.116 147.903C123.883 148.136 124.69 148.211 125.488 148.124C125.836 148.08 126.177 147.993 126.503 147.864C127.12 147.624 127.644 147.193 127.999 146.634L128.876 148.281C132.169 154.476 135.571 160.89 140.671 163.659C144.266 165.692 148.154 167.157 152.197 168C154.52 171.411 156.597 174.983 158.412 178.69C158.811 179.617 159.592 181.603 160.653 184.228C163.51 191.388 168.248 203.282 172.453 212.483C172.191 213.612 171.962 214.644 171.755 215.568C170.783 219.959 170.274 222.157 168.806 223.791C166.526 226.265 165.36 229.154 165.662 231.492C165.711 231.87 165.755 232.214 165.798 232.547C166.066 234.086 166.293 235.303 164.915 239.35C163.826 242.477 162.969 245.68 162.352 248.934L161.971 250.953C161.32 254.404 156.263 273.482 154.84 277.814C154.381 279.225 152.876 283.102 151.139 287.614C150.09 290.325 149.092 292.889 148.185 295.256C145.989 301.004 144.304 305.557 143.588 308.05C143.278 308.853 143.15 309.715 143.212 310.573C143.274 311.431 143.526 312.265 143.948 313.015C145.698 316.099 150.08 317.55 151.891 318.039C151.449 321.265 150.81 324.461 149.978 327.609C147.196 326.577 144.059 325.595 140.567 324.662C135.884 323.413 127.366 321.702 119.17 320.055C112.853 318.783 106.896 317.594 102.965 316.667C92.8675 314.256 83.1052 310.61 73.899 305.811C64.0729 300.645 58.4549 295.216 57.0752 292.83C55.9682 290.933 55.7986 289.708 55.3301 286.435C55.1912 285.358 55.0242 284.062 54.7271 282.481C53.6347 275.816 50.5986 273.69 47.0841 271.288C46.522 270.906 45.9456 270.502 45.3532 270.066C41.6353 267.352 40.122 265.647 38.8046 260.852C38.4815 259.524 37.8062 258.308 36.8496 257.332C35.8931 256.356 34.6908 255.656 33.3697 255.306C32.2763 255.074 31.1396 255.15 30.087 255.526C29.0343 255.903 28.1073 256.565 27.4096 257.438C26.749 258.202 26.1766 259.039 25.7031 259.931C24.409 258.932 22.0284 257.643 19.7364 258.847C16.9036 260.378 14.6705 263.125 13.0455 265.164C12.5259 265.845 11.9724 266.5 11.3871 267.126C9.97805 268.7 8.70678 270.392 7.58735 272.184C6.60651 273.616 5.52027 275.224 4.14556 277.126C0.694536 281.906 -0.614475 284.86 1.26694 288.697C2.50249 291.23 6.37278 293.679 11.2647 296.731C13.2193 297.971 15.2485 299.248 17.3443 300.679C22.3797 304.12 27.307 308.17 31.5902 311.744C33.5203 313.336 35.3584 314.847 37.097 316.22C39.3713 317.836 41.4296 319.736 43.2219 321.875C43.7706 322.515 44.4043 323.272 45.366 324.314C47.1652 326.277 49.6275 327.504 52.278 327.758C52.6889 327.796 53.0929 327.889 53.4791 328.034C58.8084 331.496 63.6579 334.67 68.0576 337.611C84.722 348.632 95.729 355.907 108.682 361.369C119.525 366.198 130.642 370.387 141.975 373.917C144.314 374.484 146.58 375.318 148.729 376.403C154.372 379.859 159.887 381.596 163.44 381.137C164.26 381.058 165.048 380.781 165.737 380.329C166.802 379.55 168.599 378.48 170.826 377.132C173.053 375.784 176.058 373.964 179.111 371.973C179.259 387.314 177.814 395.274 177.792 395.37C177.751 395.576 177.787 395.789 177.892 395.97C177.997 396.152 178.164 396.289 178.362 396.357C191.065 400.369 204.066 403.37 217.243 405.329L217.415 405.307C227.9 406.961 238.494 407.824 249.109 407.887C257.227 407.923 265.34 407.45 273.399 406.469C293.701 403.852 305.394 397.823 320.113 390.226C339.367 380.297 356.463 372.336 356.639 372.255C356.746 372.203 356.841 372.129 356.918 372.038C356.995 371.948 357.052 371.842 357.087 371.729C357.121 371.615 357.132 371.495 357.118 371.377C357.105 371.259 357.067 371.145 357.007 371.042C351.116 361.909 346.058 352.264 341.894 342.224C338.362 333.703 335.937 324.764 334.678 315.627C329.341 274.232 336.877 242.284 342.308 218.963C342.84 216.704 343.334 214.511 343.791 212.386C344.539 210.898 345.233 209.411 345.872 207.922L345.926 207.798C351.216 196.011 352.98 182.945 351.005 170.177C348.998 157.768 341.269 148.532 328.032 142.488ZM59.3157 176.781C66.807 176.13 71.6698 178.685 72.4549 181.52C72.9709 183.353 71.6032 185.219 68.7128 186.664C65.3372 188.323 61.2135 187.072 58.6583 183.613C57.3176 181.754 56.5362 179.55 56.4059 177.261C57.3695 177.044 58.3471 176.894 59.3317 176.814L59.3157 176.781ZM293.114 142.922C291.287 144.393 284.997 149.388 272.418 158.573C269.671 157.063 264.969 153.403 258.377 147.564L257.891 147.137C255.973 145.461 253.032 147.961 250.189 150.671C245.476 155.159 241.377 158.076 237.995 159.41C236.971 158.566 235.668 158.139 234.344 158.214C234.116 158.243 233.909 158.362 233.769 158.544C233.628 158.726 233.566 158.957 233.595 159.185C233.625 159.413 233.743 159.62 233.925 159.76C234.107 159.901 234.338 159.963 234.566 159.934C235.568 159.91 236.539 160.278 237.274 160.96C237.334 161.023 237.404 161.077 237.481 161.119C241.234 164.202 245.465 172.432 247.532 176.442C248.217 177.776 248.762 178.836 249.081 179.413C249.218 179.679 249.418 179.908 249.663 180.079C249.909 180.251 250.192 180.36 250.489 180.396C250.794 180.398 251.095 180.337 251.374 180.216C251.653 180.096 251.905 179.92 252.113 179.698C251.531 184.225 250.447 193.268 250.729 198.523C246.053 202.389 242.85 204.759 242.786 204.803C242.671 204.887 242.579 204.997 242.517 205.125C242.455 205.253 242.426 205.395 242.432 205.537C242.437 205.679 242.478 205.817 242.549 205.94C242.621 206.063 242.722 206.166 242.843 206.24C242.843 206.24 243.475 206.625 244.489 207.345C242.536 209.121 240.349 210.623 237.99 211.807C238.188 204.3 240.084 196.049 241.632 189.346C242.369 186.023 243.059 183.149 243.338 181.062C243.355 180.937 243.344 180.809 243.306 180.688C243.268 180.568 243.204 180.457 243.119 180.363C243.033 180.27 242.929 180.196 242.812 180.148C242.695 180.099 242.569 180.077 242.443 180.082C234.334 180.463 224.116 183.738 223.679 183.876C223.545 183.919 223.424 183.993 223.325 184.093C223.226 184.193 223.153 184.316 223.112 184.45C223.073 184.595 222.08 187.928 220.02 197.529C217.93 195.782 215.61 193.785 213.18 191.663C215.463 188.665 228.281 171.664 230.915 164.611C232.104 161.62 232.829 158.465 233.065 155.256C241.605 149.178 253.732 143.804 264.172 139.813C266.013 144.237 271.657 151.947 271.91 152.287C272.043 152.47 272.242 152.595 272.464 152.633C272.687 152.672 272.916 152.622 273.103 152.495C273.231 152.408 285.315 144.173 292.271 141.446C292.615 142.124 292.909 142.599 293.13 142.955L293.114 142.922ZM278.707 170.116C278.884 170.445 279.016 170.796 279.098 171.161C279.217 172.078 276.103 175.043 271.1 179.814C269.244 181.591 267.034 183.706 264.436 186.244C260.171 190.406 255.945 194.144 252.366 197.123C252.287 190.455 253.861 179.251 254.113 177.494L254.397 177.166C259.026 171.586 264.324 166.597 270.173 162.312C273.741 161.421 282.05 159.616 286.725 159.631C285.16 160.508 283.465 161.461 281.699 162.493C276.579 165.542 277.941 168.42 278.723 170.149L278.707 170.116ZM269.21 184.043C272.553 183.953 275.884 184.479 279.037 185.597C276.489 190.155 269.473 206.513 267.933 210.115C265.972 210.274 258.911 210.917 253.03 212.036C250.411 209.687 247.646 207.506 244.753 205.505C252.061 199.909 259.036 193.893 265.645 187.486L269.21 184.043ZM253.033 176.083C252.312 177.055 251.484 177.943 250.566 178.732L250.467 178.593C250.144 178.075 249.615 177.048 248.935 175.749C245.978 169.988 242.761 164.017 239.406 160.778C242.821 159.242 246.827 156.325 251.319 152.028C255.014 148.51 256.279 148.196 256.698 148.549L257.171 148.966C261.436 152.902 265.995 156.507 270.809 159.748L270.17 160.215L269.234 160.907C263.253 165.29 257.836 170.396 253.107 176.108L253.033 176.083ZM236.16 212.253C233.787 208.585 231.161 206.476 225.989 202.516C224.774 201.589 223.214 200.333 221.439 198.861C223.198 190.628 224.228 186.684 224.571 185.462C230.056 183.755 235.693 182.587 241.405 181.975C241.078 183.871 240.517 186.297 239.881 189.048C238.342 196.006 236.393 204.485 236.233 212.279L236.16 212.253ZM225.467 155.979C225.487 155.831 225.468 155.681 225.411 155.543C224.742 150.898 223.935 145.991 223.05 142.026C227.356 141.102 231.51 139.578 235.391 137.498L236.02 137.137C252.3 127.813 257.246 124.961 259.397 109.556C259.876 109.552 260.355 109.517 260.829 109.453C262.149 109.262 263.451 108.969 264.725 108.578C266.185 110.861 272.061 119.287 279.399 122.058C279.605 122.141 279.834 122.143 280.041 122.062C280.247 121.981 280.414 121.824 280.509 121.624L280.647 121.338C280.984 125.397 281.371 129.216 281.578 131.275L281.677 132.044C277.933 133.191 271.601 135.242 264.445 137.948L264.376 137.957L264.261 137.971C253.371 142.091 240.544 147.73 231.665 154.154C231.552 154.235 231.46 154.342 231.397 154.465C231.333 154.589 231.301 154.726 231.302 154.865C231.138 158.021 230.447 161.128 229.259 164.056C228.648 165.561 227.924 167.018 227.093 168.414C226.813 165.699 226.258 161.028 225.55 155.991L225.467 155.979ZM285.231 132.762C287.489 134.961 289.489 137.408 291.195 140.058C284.938 142.601 275.398 148.877 272.751 150.675C271.329 148.679 267.184 142.746 265.724 139.286C275.425 135.705 283.383 133.339 285.316 132.786L285.231 132.762ZM190.316 70.0861C189.321 68.4197 189.901 64.9653 191.908 60.5576C195.089 53.6796 201.197 48.3586 204.808 47.8931L205.187 47.8443C205.473 47.8088 205.763 47.8457 206.031 47.9516C206.3 48.0576 206.537 48.2291 206.721 48.4506C207.462 49.404 207.464 51.5014 206.726 54.0906L202.652 58.6481C201.722 58.238 200.701 58.0803 199.691 58.1907L199.599 58.2026C199.371 58.232 199.164 58.3507 199.024 58.5328C198.883 58.7148 198.821 58.9451 198.85 59.1732C198.88 59.4012 198.999 59.6082 199.181 59.7487C199.363 59.8891 199.593 59.9515 199.821 59.9221C200.351 59.8477 200.891 59.8936 201.4 60.0565L199.937 61.7252L199.866 61.8043L198.549 63.6172L198.021 64.2214L196.828 65.5407L196.185 66.2528L195.273 67.3144L194.523 68.1803L193.823 68.993L193.084 69.8575L192.507 70.5379L192.002 71.1391C191.675 71.0987 191.361 70.9852 191.084 70.8071C190.807 70.629 190.574 70.3908 190.401 70.1102L190.316 70.0861ZM197.285 141.769C190.613 139.821 190.727 133.933 191.089 131.497C191.275 129.612 191.12 127.71 190.633 125.88C189.989 122.782 189.999 121.953 191.708 121.558C191.916 121.517 192.126 121.49 192.338 121.476L193.152 121.372C193.622 121.311 194.077 121.311 194.514 121.266L194.777 121.232C195.321 121.158 195.86 121.053 196.392 120.919L196.506 120.904C197.99 120.518 199.401 119.895 200.686 119.06L200.766 119.05C201.131 118.805 201.461 118.564 201.835 118.306L201.941 118.222C202.244 117.981 202.524 117.739 202.78 117.496L202.873 117.403C203.121 117.161 203.36 116.932 203.564 116.708L203.635 116.629L204.183 115.999C204.445 115.674 204.693 115.339 204.916 114.995C205.931 113.625 206.567 112.011 206.761 110.317C206.755 110.109 206.728 109.901 206.681 109.698C206.211 107.043 201.301 98.3413 196.54 95.8551C196.253 95.7056 195.977 95.5547 195.713 95.4024C193.94 94.3956 193.016 93.559 192.876 92.8313C192.735 92.1035 193.294 91.2856 194.224 90.0935L195.011 89.1414C196.135 87.831 197.03 86.7251 196.86 85.4068C196.699 84.819 196.413 84.2731 196.02 83.8066C195.628 83.3402 195.14 82.9641 194.589 82.7045L193.601 82.0975C191.986 81.1403 190.151 80.0134 189.837 78.4806C189.789 77.8752 189.865 77.2664 190.062 76.6918C190.258 76.1172 190.571 75.5891 190.98 75.1401C191.386 74.5866 192.202 73.5956 192.986 72.6206C194.064 71.3161 195.513 69.6259 197.269 67.6049C199.024 65.5838 200.931 63.3801 203.118 60.9072C204.056 61.5246 204.913 62.2556 205.671 63.0837C205.177 64.0447 204.688 65.0401 204.237 66.0655C201.548 72.3209 201.032 77.993 203.041 80.8339C203.473 81.4671 204.069 81.971 204.766 82.2918C205.462 82.6126 206.232 82.7382 206.994 82.6552L207.223 82.6257C210.41 82.2148 214.962 77.8404 218.671 71.9896C219.101 72.1581 219.543 72.292 219.993 72.3903C221.168 72.6319 222.375 72.6733 223.564 72.5127C226.582 72.0983 229.366 70.6616 231.453 68.4422C231.53 68.3558 231.589 68.2551 231.627 68.1458C231.665 68.0365 231.681 67.9209 231.674 67.8054C231.668 67.6899 231.638 67.5769 231.588 67.4729C231.537 67.3688 231.467 67.2757 231.38 67.1988C231.294 67.1219 231.193 67.0629 231.084 67.0249C230.975 66.987 230.859 66.9709 230.743 66.9777C230.628 66.9845 230.515 67.0139 230.411 67.0644C230.307 67.1148 230.214 67.1853 230.137 67.2717C228.913 68.6174 227.372 69.6364 225.654 70.2364C223.937 70.8363 222.097 70.9982 220.301 70.7074C220.039 70.6505 219.781 70.5787 219.527 70.4925C220.496 68.8485 221.367 67.1486 222.134 65.4015C223.069 63.3265 223.727 61.1375 224.092 58.8909C227.033 58.8988 229.927 59.6259 232.523 61.0089C232.62 61.069 232.728 61.1094 232.841 61.1278C232.954 61.1461 233.069 61.1421 233.181 61.1158C233.292 61.0895 233.397 61.0416 233.49 60.9748C233.583 60.9079 233.661 60.8234 233.722 60.7261C233.782 60.6288 233.822 60.5207 233.84 60.4078C233.859 60.2949 233.855 60.1794 233.829 60.0681C233.802 59.9568 233.754 59.8517 233.687 59.7589C233.621 59.6661 233.536 59.5874 233.439 59.5272C230.619 58.0163 227.471 57.2215 224.272 57.2128C224.437 55.3771 224.024 53.5356 223.092 51.9458C222.637 51.2408 222.008 50.6652 221.265 50.2749C220.523 49.8846 219.692 49.693 218.854 49.7185C215.36 49.7377 210.368 54.5884 206.449 61.5266C205.76 60.8243 205.003 60.1919 204.19 59.6386L208.075 55.2452C214.175 48.3172 220.974 40.7628 226.751 34.4124C231.733 32.733 233.92 32.9755 234.807 33.6186C235.119 33.8685 235.36 34.1949 235.508 34.5659C235.656 34.937 235.705 35.34 235.651 35.7357L235.639 36.4598C235.567 39.9654 235.495 44.3799 238.809 45.5843C240.481 46.0152 242.226 46.0843 243.928 45.7867C245.418 45.5946 247.29 45.4698 247.599 46.0593C248.136 47.0622 247.512 48.7277 246.792 50.6501C245.601 53.7988 244.136 57.7054 246.393 61.9245C247.85 64.6386 250.904 65.9114 253.859 67.1386C257.557 68.7014 260.829 70.0393 260.738 73.8503C260.68 76.0254 258.817 77.6641 257.004 79.2381C254.908 81.0583 252.75 82.9447 253.435 85.7234C253.593 86.541 253.929 87.314 254.419 87.9878C254.908 88.6617 255.54 89.22 256.268 89.6235C259.384 91.2845 263.639 89.757 263.817 89.6875C263.89 89.6608 263.96 89.6244 264.024 89.5792C266.826 87.5398 274.836 83.0459 278.129 86.712C279.719 88.465 280.134 91.3249 279.265 94.3504C277.604 100.089 272.157 104.753 264.697 106.822C263.01 107.405 261.255 107.768 259.476 107.903C259.599 106.873 259.707 105.811 259.817 104.678C259.836 104.56 259.831 104.441 259.801 104.326C259.772 104.211 259.719 104.103 259.647 104.01C259.574 103.916 259.483 103.838 259.379 103.781C259.275 103.724 259.161 103.688 259.043 103.677C258.925 103.666 258.806 103.679 258.693 103.716C258.58 103.753 258.476 103.812 258.387 103.891C258.299 103.969 258.227 104.065 258.176 104.172C258.126 104.28 258.098 104.396 258.095 104.515C256.346 123.492 252.655 125.599 235.01 135.717L234.381 136.078C223.482 142.39 202.723 143.364 197.37 141.793L197.285 141.769ZM211.736 58.3278C212.986 58.9825 215.401 58.9158 218.389 58.857C219.679 58.8305 221.051 58.8051 222.44 58.8241C222.085 60.8496 221.478 62.8227 220.633 64.6976C219.88 66.4113 219.025 68.0783 218.072 69.6895C217.247 69.1101 216.626 68.2845 216.299 67.3308C216.225 67.1132 216.067 66.9341 215.861 66.8328C215.654 66.7316 215.416 66.7165 215.198 66.791C214.981 66.8654 214.802 67.0232 214.701 67.2296C214.599 67.4361 214.584 67.6743 214.659 67.8919C215.11 69.2319 215.988 70.3875 217.157 71.1826C213.596 76.7345 209.455 80.5899 207.024 80.9032L206.875 80.9224C206.404 80.9948 205.921 80.9317 205.484 80.7405C205.046 80.5493 204.672 80.2378 204.405 79.8423C203.066 77.9522 202.973 73.1627 205.773 66.7649C206.301 65.5314 206.856 64.411 207.428 63.335C208.562 61.218 209.873 59.201 211.348 57.3057C211.289 57.5042 211.304 57.7173 211.39 57.9055C211.477 58.0937 211.629 58.2441 211.818 58.3289L211.736 58.3278ZM211.703 56.8054C214.302 53.5567 216.863 51.6301 218.628 51.4025L218.949 51.3611C219.498 51.3358 220.044 51.4565 220.531 51.711C221.019 51.9655 221.43 52.3447 221.723 52.8098C222.451 54.103 222.76 55.5896 222.61 57.0658C221.137 57.0342 219.696 57.0685 218.336 57.0923C215.803 57.1508 213.42 57.2016 212.465 56.7537C212.354 56.7146 212.236 56.6991 212.119 56.7081C212.002 56.7172 211.888 56.7507 211.784 56.8065L211.703 56.8054ZM209.521 181.354C209.593 181.916 209.737 182.492 209.848 182.897C209.9 183.102 210.024 183.28 210.198 183.399C210.373 183.518 210.584 183.57 210.794 183.544L210.897 183.531C211.12 183.476 211.312 183.335 211.431 183.138C211.55 182.941 211.586 182.705 211.531 182.482C210.127 176.836 209.931 167.002 210.495 165.95C211.331 165.376 212.213 164.873 213.133 164.445C217.033 162.637 220.693 160.349 224.025 157.633C224.909 164.034 225.496 169.587 225.642 170.897C220.946 178.495 213.645 188.211 211.863 190.574C210.544 189.38 209.141 188.174 207.77 186.941C208.194 185.032 208.78 183.163 209.521 181.354ZM158.131 113.778C160.236 113.11 162.18 112.545 162.876 112.886C164.462 113.784 165.812 115.043 166.818 116.562C167.824 118.081 168.457 119.817 168.665 121.626C168.7 121.902 168.736 122.177 168.774 122.475C168.823 123.794 168.551 125.106 167.982 126.298C167.413 127.49 166.564 128.526 165.507 129.317C165.118 129.628 164.706 129.911 164.276 130.164L163.975 129.631C160.543 123.536 157.297 117.789 156.067 115.757C155.845 115.389 155.613 115.035 155.381 114.68L158.131 113.778ZM92.3827 149.152C91.816 148.994 91.2896 148.716 90.8388 148.338C90.3881 147.96 90.0234 147.49 89.7693 146.96C90.7207 146.837 91.2828 146.858 91.3057 146.855C91.5358 146.853 91.7556 146.76 91.917 146.596C92.0784 146.432 92.168 146.21 92.1661 145.98C92.1643 145.75 92.0712 145.531 91.9072 145.369C91.7433 145.208 91.5219 145.118 91.2919 145.12C91.1543 145.138 90.3615 145.135 89.0861 145.276C89.055 145.035 88.9552 144.804 88.9098 144.541C88.633 143.027 88.4497 141.967 88.9823 141.036C89.9337 140.913 91.2579 141.512 92.2202 143.462C93.3889 145.747 93.3993 148.088 92.3941 149.15L92.3827 149.152ZM118.387 147.372C116.965 147.917 114.636 147.203 112.761 145.767L119.065 144.045C119.225 144.293 119.436 144.662 119.706 145.128C119.748 145.593 119.644 146.06 119.407 146.463C119.171 146.865 118.814 147.184 118.387 147.372ZM119.251 142.238L110.583 144.603C104.729 146.208 97.7865 148.129 94.5264 148.875C94.8085 147.844 94.8833 146.767 94.7466 145.706C94.6099 144.645 94.2643 143.623 93.7298 142.696C93.1205 141.315 92.0183 140.211 90.6383 139.599C91.9694 138.911 93.3584 138.342 94.7894 137.898C100.236 136.031 106.498 133.533 109.512 132.317L111.073 131.685C111.281 131.608 111.498 131.557 111.718 131.532C113.678 131.279 117.584 132.466 122.542 138.294C123.237 139.12 123.882 139.986 124.473 140.889C123.004 141.242 121.201 141.719 119.251 142.238ZM125.889 146.534C125.045 146.794 124.137 146.752 123.321 146.415C122.506 146.077 121.833 145.466 121.42 144.686C121.206 144.294 121.026 143.979 120.863 143.709C122.597 143.24 124.244 142.818 125.53 142.489C125.872 143.063 126.219 143.671 126.552 144.269C126.964 145.381 126.765 146.187 125.9 146.532L125.889 146.534ZM162.287 183.796C161.22 181.125 160.426 179.129 160.027 178.202C158.106 174.288 155.906 170.517 153.445 166.919C153.377 166.817 153.289 166.731 153.187 166.666C153.084 166.601 152.969 166.559 152.848 166.541C148.87 165.772 145.043 164.36 141.518 162.361C136.88 159.836 133.602 153.662 130.432 147.696C129.215 145.394 127.952 143.016 126.633 140.914C125.818 139.587 124.907 138.321 123.907 137.128C116.406 128.305 111.407 129.661 110.486 130.024L108.913 130.658C107.407 131.272 105.07 132.214 102.439 133.229C102.288 132.428 102.305 131.605 102.488 130.81C102.916 129.52 107.688 126.492 110.543 124.679C114.034 122.469 114.399 122.411 117.258 121.984L118.519 121.821C120.134 121.623 121.611 120.811 122.643 119.553C122.949 119.133 123.351 118.791 123.816 118.557C124.28 118.323 124.793 118.203 125.313 118.207C128.526 118.084 129.286 117.38 130.476 116.038C131.059 115.326 131.714 114.675 132.429 114.096C134.378 112.586 136.197 113.039 137.967 113.487C138.675 113.701 139.408 113.822 140.147 113.847C140.902 113.845 141.646 113.663 142.317 113.315C142.988 112.967 143.566 112.463 144.002 111.847C144.507 111.164 145.22 110.663 146.033 110.419C148.284 109.803 152.073 112.613 154.531 116.678C155.735 118.69 159.026 124.419 162.41 130.509L163.118 131.758C167.061 138.743 171.001 145.717 172.796 148.702C177.315 156.032 182.272 163.084 187.639 169.817C193.453 177.133 216.871 197.69 224.969 203.918C232.636 209.782 234.398 211.338 238.336 220.189C238.43 220.399 238.603 220.564 238.818 220.646C239.033 220.729 239.272 220.723 239.483 220.629C239.693 220.536 239.858 220.362 239.941 220.147C240.023 219.932 240.017 219.693 239.924 219.483C238.94 217.279 238.069 215.491 237.224 214.004C240.41 213.22 244.392 209.851 245.84 208.511C256.684 216.71 265.731 227.046 272.422 238.881C273.206 240.26 273.939 241.611 274.623 242.933C276.698 246.919 278.554 250.922 280.158 254.864C276.904 257.288 273.257 259.728 269.307 262.09C262.587 266.153 255.611 269.777 248.423 272.94C246.405 273.798 244.463 274.828 242.62 276.019C240.068 277.72 237.22 278.929 234.223 279.584C228.862 280.939 224.22 279.556 220.786 275.605C220.333 275.081 219.962 274.546 219.496 273.919C217.821 271.594 215.023 267.701 203.165 255.723C188.649 241.022 183.748 231.666 178.155 220.826L177.367 219.32C172.799 210.282 165.993 193.108 162.306 183.852L162.287 183.796ZM285.431 264.218L285.15 263.299L285.029 262.906C284.886 262.459 284.737 262 284.584 261.53L284.431 261.072C284.24 260.491 284.035 259.9 283.817 259.287L283.669 258.863C283.497 258.372 283.312 257.872 283.114 257.361L282.868 256.717C282.647 256.147 282.42 255.563 282.187 254.963L282.086 254.72C280.381 250.535 278.419 246.254 276.218 242.016C275.521 240.684 274.786 239.322 273.988 237.922C271.304 233.164 268.23 228.637 264.796 224.387C271.939 220.402 275.633 219.855 276.294 219.922C277.277 220.762 282.137 227.455 285.45 232.54C287.393 235.193 289.546 237.687 291.888 239.996C295.071 243.35 298.349 246.808 299.478 249.331C297.924 250.962 296.192 252.413 294.314 253.657C291.428 255.683 287.347 261.454 285.45 264.274L285.431 264.218ZM287.12 276.144C287.256 276.124 287.385 276.071 287.497 275.991C287.497 275.991 287.497 275.991 287.567 275.9C287.616 275.864 287.662 275.823 287.702 275.778C292.229 268.854 300.372 261.325 308.283 254.618C309.775 254.355 316.109 253.224 319.135 252.554C318.213 257.87 317.776 263.259 317.83 268.654C317.889 278.144 318.299 291.902 318.413 295.138C313.716 296.315 293.05 301.531 288.966 303.118C288.175 301.682 286.692 296.233 285.583 292.157C284.827 289.364 284.042 286.528 283.413 284.36C282.273 280.655 281.396 276.873 280.789 273.044C282.669 274.245 284.654 275.273 286.72 276.114C286.85 276.178 286.994 276.207 287.139 276.2L287.12 276.144ZM267.537 296.989C269.115 302.274 274.723 322.447 275.71 326.131C273.855 326.743 266.811 327.791 259.402 328.898L257.533 329.139C255 329.465 252.511 329.961 250.094 330.377C242.664 331.685 234.984 333.036 233.473 330.9C231.35 327.899 223.84 296.585 223.663 280.024C226.347 281.496 229.439 282.047 232.466 281.593C233.232 281.495 233.992 281.35 234.741 281.16C237.895 280.46 240.891 279.181 243.578 277.387C245.346 276.238 247.21 275.245 249.15 274.419C252.298 273.07 256.714 270.985 261.567 268.402C262.188 274.848 266.099 292.163 267.537 296.989ZM199.669 254.46C198.72 259.993 198.054 265.572 197.675 271.173C197.188 276.433 196.611 282.894 196.112 284.543L194.667 284.357C189.731 283.626 184.745 283.279 179.755 283.319C180.434 262.371 181.868 244.833 183.962 234.587C188.486 241.732 193.75 248.382 199.665 254.426L199.669 254.46ZM173.448 216.224L173.638 215.349C174.443 217.074 175.228 218.64 175.947 220.062L176.725 221.57L177.653 223.35C175.645 222.905 173.58 222.778 171.533 222.974C172.397 220.794 173.038 218.532 173.448 216.224ZM166.589 240.218C168.11 235.745 167.833 234.231 167.536 232.556C167.496 232.246 167.456 231.937 167.41 231.581C167.175 229.759 168.215 227.341 170.094 225.28L170.346 224.98C173.157 224.462 176.052 224.637 178.78 225.489C180.012 227.813 181.263 230.11 182.647 232.437C181.483 237.858 180.633 243.341 180.103 248.86C174.888 247.851 169.542 247.71 164.281 248.44C164.871 245.653 165.642 242.906 166.589 240.218ZM152.773 288.534C154.521 284.02 156.035 280.119 156.52 278.728C157.197 276.659 158.94 270.386 160.49 264.324C163.459 264.669 166.444 264.86 169.432 264.896L170.238 264.909C170.09 265.662 169.752 267.011 169.349 268.59C168.903 270.372 168.315 272.685 167.623 275.63C166.673 279.656 165.953 284.283 165.384 288.004C165.01 290.441 164.623 292.95 164.346 293.965L164.035 293.9C159.553 292.819 154.858 293.02 150.486 294.481L152.773 288.534ZM149.451 303.355C149.175 303.391 148.912 303.518 148.656 303.609L148.236 303.791C147.693 304.018 147.171 304.292 146.676 304.61C147.535 302.239 148.601 299.386 149.691 296.542C154.14 294.733 159.048 294.381 163.71 295.538C164.121 295.663 164.549 295.722 164.979 295.713C165.976 295.584 166.137 294.748 167.148 288.219C167.722 284.532 168.406 279.899 169.359 275.989C170.053 273.056 170.64 270.742 171.088 268.971C172.332 264.068 172.432 263.67 171.518 263.264C170.868 263.104 170.195 263.053 169.529 263.112C167.752 263.073 164.573 263.005 160.999 262.58C162.288 257.659 163.42 253.155 163.731 251.495L163.973 250.298C169.286 249.493 174.699 249.611 179.972 250.648C178.473 266.143 177.595 287.082 177.567 310.009C172.619 305.706 162.506 302.476 154.662 302.648L154.536 302.665C153.924 302.681 153.331 302.719 152.756 302.778L151.415 302.951L150.979 303.007L150.264 303.157L149.451 303.355ZM179.39 299.111C184.647 299.296 186.244 299.393 187.011 306.962C187.802 314.82 188.298 334.218 188.502 342.49L188.614 346.613C188.713 349.816 188.801 353.126 188.457 353.893C185.699 354.021 182.936 353.988 180.182 353.795C179.405 335.295 179.152 316.425 179.385 299.065L179.39 299.111ZM169.936 375.743C167.687 377.105 165.915 378.185 164.75 378.999C162.788 380.417 156.626 379.266 149.645 375.014C147.377 373.843 144.976 372.948 142.495 372.347C131.227 368.929 120.168 364.856 109.375 360.149C96.5778 354.807 85.6022 347.504 69.0384 336.54C64.5943 333.617 59.7763 330.416 54.4469 326.954C53.8617 326.646 53.2191 326.463 52.5596 326.416C50.2962 326.226 48.1886 325.186 46.6603 323.506C45.7101 322.463 45.1067 321.76 44.5709 321.13C42.7064 318.901 40.5672 316.917 38.2042 315.226C36.4786 313.864 34.6406 312.353 32.7234 310.77C28.3555 307.173 23.4023 303.103 18.3022 299.612C16.182 298.172 14.1498 296.872 12.1723 295.635C7.69265 292.798 3.82384 290.36 2.79643 288.267C1.41929 285.449 2.01044 283.345 5.53136 278.474C6.92605 276.546 8.02229 274.925 9.00165 273.482C10.0624 271.782 11.2622 270.174 12.5888 268.672C13.2181 268.002 13.8121 267.299 14.3684 266.567C15.9835 264.54 17.9995 262.008 20.512 260.705C22.1502 259.853 24.0707 261.19 24.9552 261.904C24.8521 262.189 24.7681 262.472 24.7033 262.752C23.636 262.501 22.527 262.484 21.4526 262.703C20.3783 262.922 19.3642 263.372 18.4804 264.02C16.9267 265.258 9.55177 274.495 6.24539 278.86C6.17106 278.95 6.11554 279.053 6.08215 279.165C6.04875 279.276 6.03817 279.393 6.05101 279.509C6.06386 279.625 6.09987 279.737 6.15691 279.838C6.21395 279.94 6.29085 280.029 6.38302 280.1C6.47519 280.171 6.58075 280.223 6.69338 280.252C6.80601 280.282 6.92341 280.288 7.03859 280.271C7.15377 280.254 7.26436 280.214 7.36377 280.154C7.46318 280.093 7.54935 280.013 7.61717 279.918C12.3704 273.758 18.4546 266.261 19.5652 265.384C20.2622 264.887 21.0591 264.549 21.9004 264.392C22.7417 264.235 23.607 264.264 24.4361 264.476C24.3689 265.35 24.518 266.228 24.8703 267.031C24.5224 266.97 24.1679 266.957 23.8164 266.992C21.1225 267.339 18.0698 270.961 13.0035 276.952L10.0492 280.432C9.9234 280.609 9.86811 280.826 9.8942 281.04C9.92029 281.255 10.0259 281.453 10.1902 281.594C10.3545 281.735 10.5656 281.809 10.782 281.802C10.9985 281.796 11.2045 281.708 11.3596 281.557L14.3239 278.063C18.7881 272.826 22.0017 268.916 24.0193 268.655C25.842 268.42 30.9502 271.433 33.8164 275.224C34.0282 275.511 34.2401 275.799 34.4305 276.1C35.0521 276.991 35.4414 278.022 35.5632 279.101C34.6703 277.935 33.6764 276.851 32.5931 275.86C30.8279 274.281 29.334 273.541 28.1403 273.683C24.2542 274.184 19.6365 279.045 15.1789 283.792C14.2366 284.799 13.3042 285.793 12.3874 286.727C12.2262 286.892 12.1371 287.113 12.1394 287.344C12.1418 287.574 12.2355 287.794 12.4 287.955C12.5645 288.116 12.7863 288.205 13.0166 288.203C13.2469 288.201 13.4668 288.107 13.6279 287.942C14.5447 287.008 15.4871 286.001 16.4409 284.993C20.4687 280.709 25.0291 275.856 28.2847 275.436C28.5255 275.405 29.4532 275.46 31.3767 277.182C34.3547 279.851 36.9124 283.962 36.8852 285.469C36.923 285.969 36.8309 286.47 36.6179 286.924C36.4049 287.379 36.0782 287.77 35.6695 288.061C33.7519 288.313 31.8182 288.422 29.8845 288.387C29.8274 288.162 29.7522 287.942 29.6597 287.729C31.4811 286.645 32.9042 285.002 33.7175 283.045C33.7629 282.937 33.7859 282.821 33.7851 282.703C33.7843 282.586 33.7597 282.47 33.7128 282.363C33.6659 282.255 33.5976 282.158 33.5122 282.078C33.4268 281.998 33.3259 281.935 33.2158 281.895C33.1056 281.855 32.9884 281.837 32.8713 281.844C32.7542 281.85 32.6396 281.88 32.5345 281.932C32.4293 281.984 32.3358 282.057 32.2595 282.146C32.1833 282.235 32.1259 282.339 32.0909 282.451C31.4124 284.035 30.2497 285.364 28.7694 286.247C27.7118 284.991 26.2283 284.17 24.6029 283.94C24.3736 283.924 24.1469 283.999 23.9729 284.149C23.7988 284.299 23.6916 284.512 23.6748 284.742C23.658 284.971 23.733 285.198 23.8833 285.372C24.0336 285.546 24.2469 285.653 24.4762 285.67C25.9232 285.775 28.202 287.45 28.2577 289.238C28.2593 289.461 28.3468 289.675 28.502 289.835C28.6573 289.995 28.8682 290.089 29.091 290.098C31.4359 290.181 33.7836 290.065 36.1089 289.752C36.2006 289.741 45.8796 288.341 47.4193 296.126C47.4619 296.342 47.5852 296.534 47.7641 296.662C47.943 296.791 48.1641 296.846 48.3825 296.817C48.4945 296.796 48.6012 296.752 48.6963 296.689C48.7914 296.626 48.8731 296.544 48.9366 296.449C49.0002 296.355 49.0444 296.248 49.0668 296.136C49.0891 296.024 49.089 295.909 49.0667 295.797C47.8482 289.509 42.1518 287.901 38.0143 287.899C38.3866 287.153 38.5761 286.33 38.567 285.496C38.3753 283.893 37.7772 282.366 36.8295 281.059C37.3925 279.821 37.5857 277.885 35.7903 275.168C35.7023 275.027 35.5914 274.89 35.5034 274.75C37.1896 271.829 35.5588 269.032 33.4132 266.582C33.8379 266.315 34.2479 266.024 34.6414 265.713C34.735 265.643 34.8137 265.556 34.8728 265.455C34.9318 265.355 34.9699 265.243 34.9849 265.128C34.9999 265.012 34.9914 264.895 34.9599 264.782C34.9284 264.67 34.8746 264.565 34.8017 264.474C34.7288 264.383 34.6383 264.308 34.5356 264.253C34.4329 264.198 34.3201 264.164 34.204 264.153C34.0879 264.142 33.9708 264.155 33.8598 264.191C33.7488 264.227 33.6462 264.284 33.558 264.361C30.3021 266.948 26.9948 266.967 26.4812 266.508C26.2551 266.162 26.1011 265.774 26.0286 265.367C25.9561 264.959 25.9665 264.542 26.0591 264.139C26.1394 263.508 26.2944 262.89 26.5208 262.296C26.6037 262.214 26.6691 262.116 26.7133 262.009C26.7574 261.901 26.7794 261.785 26.7779 261.669C27.2435 260.658 27.8527 259.72 28.5865 258.883C29.0809 258.245 29.7453 257.76 30.5033 257.483C31.2613 257.206 32.0822 257.148 32.8714 257.317C33.8873 257.599 34.8085 258.15 35.5382 258.911C36.2679 259.672 36.7792 260.615 37.0184 261.642C38.399 266.475 39.94 268.666 44.2115 271.786C44.8168 272.233 45.4047 272.635 45.9797 273.027C49.4325 275.402 51.928 277.131 52.8914 283.067C53.0953 284.649 53.3296 285.924 53.49 286.987C53.9171 290.3 54.1809 291.805 55.4553 294.006C57.2377 297.074 63.4813 302.656 72.9828 307.654C82.3208 312.522 92.223 316.22 102.465 318.666C106.42 319.601 112.402 320.799 118.731 322.07C126.926 323.717 135.397 325.422 140.029 326.643C153.655 330.27 161.723 334.731 164.005 339.867C164.08 340.039 164.209 340.182 164.373 340.275C164.536 340.367 164.724 340.404 164.911 340.38C164.992 340.381 165.073 340.371 165.151 340.349C165.362 340.257 165.527 340.085 165.611 339.871C165.695 339.657 165.691 339.418 165.598 339.207C163.804 335.139 159.144 331.625 151.51 328.554C152.826 323.303 153.786 317.97 154.382 312.59L154.367 312.476L154.566 310.947C154.856 308.672 155.144 306.386 155.343 304.227C163.715 304.255 173.948 308.238 177.456 312.308C177.476 328.283 177.889 345.14 178.723 361.733C178.868 364.663 178.961 367.378 179.011 369.935C175.714 372.201 172.514 374.141 169.931 375.709L169.936 375.743ZM28.5218 268.506C29.69 268.36 30.8275 268.028 31.8914 267.524C34.3679 270.281 34.793 271.951 34.3524 273.325C32.6762 271.42 30.7081 269.794 28.5218 268.506ZM215.79 395.867C216.073 398.872 216.335 401.449 216.538 403.474C204.037 401.56 191.696 398.718 179.617 394.972C180.057 392.06 181.489 380.745 180.532 361.663C180.43 359.609 180.336 357.547 180.247 355.476C183.055 355.665 185.872 355.691 188.683 355.554C188.853 355.551 189.022 355.529 189.188 355.489C190.585 354.936 190.524 352.659 190.366 346.55L190.256 342.439C190.047 334.133 189.558 314.698 188.757 306.772C187.882 298.086 185.241 297.576 179.445 297.367C179.509 293.164 179.595 289.039 179.72 285.037C184.655 284.992 189.586 285.334 194.467 286.061C195.206 286.203 195.957 286.278 196.71 286.284C197.856 286.137 198.176 285.093 199.442 271.318C199.955 265.716 200.532 259.523 201.166 255.945L202.08 256.888C203.425 258.276 204.684 259.548 205.825 260.717C205.963 269.382 206.723 283.141 207.813 298.919L207.155 298.876C194.666 298.004 193.921 298.1 193.461 298.416C192.829 298.847 192.732 299.186 193.325 308.572C193.46 310.792 193.603 313.081 193.694 315.051C193.812 317.681 193.786 320.738 193.772 323.432C193.731 329.987 193.776 330.424 194.625 330.769C194.991 330.896 195.642 330.883 201.667 330.432C204.668 330.208 208.028 329.962 210.128 329.889C210.717 337.353 211.328 344.803 211.929 351.998C204.758 352.06 196.763 353.685 195.49 355.014C194.904 355.626 194.75 357.685 194.49 367.963L194.408 370.945C194.099 382.196 194.273 383.91 195.712 384.039C196.078 384.074 197.296 383.94 200.981 383.512C205.45 383.006 211.961 382.259 214.548 382.252C214.984 387.359 215.405 391.978 215.779 395.869L215.79 395.867ZM209.936 328.131C207.79 328.209 204.465 328.451 201.487 328.672C199.178 328.842 196.615 329.032 195.513 329.069C195.38 328.038 195.436 325.583 195.448 323.414C195.459 320.697 195.477 317.583 195.369 314.94C195.277 312.959 195.144 310.657 194.996 308.427C194.8 305.189 194.55 301.259 194.616 299.875C196.591 299.83 203.495 300.315 206.994 300.61L207.899 300.668C208.489 309.403 209.192 318.74 209.935 328.119L209.936 328.131ZM213.331 348.496C221.046 346.604 236.821 346.563 238.641 347.482C242.002 352.037 247.399 389.205 246.915 393.579C243.791 393.891 240.653 394.023 237.514 393.976C231.523 394.06 224.126 394.175 217.408 394.854C216.361 383.662 214.851 366.795 213.318 348.486L213.331 348.496ZM200.728 381.726C198.882 381.964 196.991 382.208 196.131 382.226C195.772 380.71 195.923 375.097 196.037 370.922L196.119 367.939C196.234 363.414 196.386 357.265 196.715 356.115C197.78 355.337 204.752 353.727 211.962 353.695C212.777 363.368 213.582 372.506 214.247 380.461C211.5 380.489 205.322 381.204 200.728 381.726ZM339.862 341.915C332.076 344.806 319.781 348.874 317.733 348.264C315.155 346.976 309.639 320.009 309.959 316.891C311.105 315.473 322.501 310.939 332.034 308.404C332.264 310.791 332.536 313.207 332.851 315.653C334.091 324.665 336.453 333.487 339.884 341.912L339.862 341.915ZM331.823 306.683C324.748 308.574 309.067 313.859 308.26 316.364C307.676 318.164 312.154 342.049 315.436 348.07C315.594 348.476 315.831 348.846 316.133 349.159C316.436 349.472 316.798 349.722 317.197 349.894C317.911 350.019 318.64 350.016 319.352 349.885C324.717 349.193 336.464 344.94 340.468 343.456C344.485 353.031 349.31 362.245 354.892 371C351.123 372.768 335.974 379.919 319.202 388.584C299.664 398.666 285.546 405.952 249.024 406.057C238.74 406.028 228.472 405.241 218.303 403.701C218.058 401.798 217.862 399.376 217.586 396.51C224.236 395.839 231.587 395.73 237.553 395.637C242.486 395.572 245.123 395.5 246.59 395.311C247.179 395.299 247.752 395.112 248.234 394.773C249.527 393.592 246.97 376.837 246.161 371.732C245.107 365.097 242.39 349.353 239.939 346.254C238.435 344.35 220.663 344.986 213.19 346.684C210.591 315.308 207.995 280.168 207.57 262.497C214.728 270.023 216.831 272.957 218.178 274.811C218.675 275.505 219.071 276.048 219.577 276.624C220.294 277.455 221.095 278.211 221.965 278.88C221.777 295.499 229.663 328.466 232.086 331.895C233.518 333.959 237.292 334.032 242.381 333.376C244.8 333.064 247.512 332.586 250.372 332.078C252.776 331.651 255.26 331.215 257.765 330.845L259.633 330.604C273.903 328.473 276.774 327.963 277.37 327.071C277.51 326.841 277.566 326.57 277.528 326.305C277.332 325.421 270.793 301.907 269.172 296.475C267.551 291.043 263.486 272.618 263.237 267.522C265.338 266.377 267.5 265.155 269.653 263.863C272.41 266.833 275.489 269.489 278.831 271.782C279.44 276.221 280.395 280.606 281.687 284.897C282.352 286.979 283.13 289.851 283.849 292.625C286.372 301.891 287.207 304.476 288.283 304.873C288.455 304.948 288.644 304.975 288.83 304.954C288.959 304.938 289.085 304.898 289.199 304.836C290.799 303.954 308.164 299.443 319.442 296.614C319.636 296.565 319.807 296.452 319.926 296.292C320.046 296.132 320.107 295.936 320.098 295.737C320.078 295.576 319.492 279.371 319.492 268.614C319.392 262.884 319.908 257.16 321.032 251.541C321.067 251.39 321.062 251.232 321.016 251.085C320.971 250.937 320.886 250.804 320.772 250.699C320.657 250.595 320.517 250.524 320.365 250.492C320.213 250.461 320.056 250.47 319.91 250.52C318.993 250.824 314.376 251.711 310.823 252.356L311.284 251.958L313.794 249.817C315.576 248.27 317.363 246.676 319.158 244.964L320.133 244.839C324.821 244.234 332.249 242.729 335.202 242.127C331.114 263.386 330.001 285.109 331.892 306.675L331.823 306.683ZM313.445 247.927C310.881 244.761 307.531 241.009 304.275 237.455C298.922 231.549 293.405 225.454 291.577 221.762C292.782 221.071 295.821 219.514 298.552 218.101C302.563 216.034 307.098 213.701 309.812 212.151C314.503 209.484 321.832 204.681 323.828 203.352C326.66 205.724 329.18 208.446 331.329 211.452C333.246 214.142 335.479 216.593 337.98 218.752C331.438 229.721 323.178 239.568 313.514 247.918L313.445 247.927ZM340.499 218.404C338.949 225.002 337.244 232.296 335.699 240.291C333.656 240.718 326.425 242.21 321.381 242.953C328.525 235.765 334.765 227.732 339.963 219.033C340.203 218.64 340.42 218.239 340.661 217.847L340.499 218.404ZM338.974 217.237C336.675 215.216 334.617 212.935 332.841 210.441C330.472 207.123 327.668 204.137 324.506 201.563C324.363 201.449 324.187 201.383 324.004 201.375C323.82 201.367 323.64 201.418 323.487 201.519C323.395 201.531 314.415 207.537 309.008 210.612C306.335 212.121 301.801 214.466 297.812 216.518C289.845 220.622 289.835 220.635 289.697 221.189C289.662 221.371 289.686 221.56 289.766 221.728C291.328 225.617 297.034 231.909 303.068 238.578C306.328 242.167 309.674 245.884 312.215 249.053L310.283 250.7C302.103 257.582 293.048 265.532 287.524 273.039L287.496 272.821C287.465 272.58 287.432 272.328 287.398 272.064L287.375 271.881C287.333 271.56 287.289 271.216 287.162 270.859C287.117 270.515 287.013 270.156 286.911 269.726L286.878 269.474C286.691 268.659 286.473 267.778 286.208 266.81L286.165 266.478C287.216 264.862 292.232 257.305 295.396 255.183C297.565 253.768 299.537 252.072 301.26 250.139C301.356 250.023 301.421 249.884 301.446 249.735C301.472 249.587 301.459 249.434 301.408 249.292C300.382 246.395 296.754 242.573 293.247 238.877C290.983 236.64 288.899 234.227 287.015 231.662C285.939 230.006 278.46 218.908 277.063 218.378C275.838 217.918 271.295 218.841 263.789 223.084C260.985 219.718 257.971 216.533 254.763 213.549C261.249 212.422 268.622 211.844 268.704 211.845C268.862 211.83 269.013 211.774 269.143 211.681C269.272 211.589 269.374 211.464 269.44 211.319C272.205 204.832 279.689 187.587 281.129 185.735C281.209 185.631 281.264 185.51 281.291 185.382C281.317 185.253 281.315 185.121 281.282 184.994C281.25 184.866 281.19 184.748 281.105 184.648C281.021 184.548 280.915 184.468 280.795 184.414C277.723 183.169 274.458 182.467 271.146 182.337L272.421 181.112C279.059 174.744 281.06 172.819 280.942 171.086C280.859 170.511 280.677 169.955 280.404 169.443C279.658 167.814 278.945 166.263 282.707 164.076C284.777 162.865 286.8 161.742 288.561 160.758C292.475 158.575 294.223 157.58 294.733 156.932C294.857 156.757 294.91 156.542 294.883 156.33C294.855 156.117 294.749 155.923 294.586 155.785C294.403 155.648 294.173 155.588 293.946 155.617C293.719 155.646 293.513 155.763 293.371 155.942C292.143 156.846 290.843 157.649 289.485 158.343C286.148 157.502 278.642 158.855 273.858 159.891C287.439 149.982 293.604 145.004 294.71 144.092C298.516 143.601 301.714 143.189 304.454 142.836C313.625 141.653 317.422 141.094 321.25 141.952C314.018 141.719 305.924 144.115 297.676 148.931C297.57 148.983 297.476 149.057 297.399 149.148C297.323 149.239 297.266 149.344 297.232 149.458C297.198 149.571 297.188 149.69 297.202 149.808C297.215 149.926 297.253 150.039 297.313 150.142C297.372 150.244 297.452 150.333 297.548 150.404C297.643 150.474 297.752 150.524 297.867 150.551C297.983 150.578 298.102 150.581 298.219 150.559C298.335 150.538 298.446 150.493 298.545 150.427C301.867 148.447 305.388 146.821 309.049 145.576C298.252 156.921 283.04 176.515 282.882 176.733C282.787 176.853 282.726 176.996 282.704 177.147C282.683 177.299 282.702 177.453 282.759 177.595C282.816 177.737 282.91 177.861 283.031 177.954C283.151 178.048 283.295 178.108 283.446 178.129C295.475 179.771 307.253 188.87 311.694 192.306C312.362 192.874 313.075 193.386 313.826 193.838C314.062 193.956 314.327 194.002 314.589 193.973C316.079 193.78 317.693 190.927 320.692 185.086C321.63 183.322 322.668 181.335 323.753 179.354C327.839 171.998 338.181 158.568 338.281 158.438C338.371 158.322 338.43 158.185 338.453 158.04C338.476 157.895 338.461 157.747 338.411 157.609C338.36 157.471 338.276 157.348 338.165 157.251C338.054 157.155 337.92 157.089 337.777 157.058C333.211 156.085 327.387 152.128 322.262 148.628C319.962 146.987 317.577 145.47 315.115 144.083C320.067 143.119 325.19 143.548 329.912 145.322C338.128 149.566 343.838 155.263 346.961 162.307C346.264 165.124 336.646 181.736 330.502 191.84C330.393 192.024 330.356 192.242 330.398 192.451C330.44 192.661 330.558 192.848 330.73 192.976C331.886 193.805 335.161 197.066 344.108 207.438C342.616 210.807 340.913 214.079 339.008 217.233L338.974 217.237ZM312.141 144.7C314.025 145.121 317.502 147.505 321.179 149.991C325.983 153.264 331.398 156.937 336.008 158.347C333.478 161.68 325.66 172.092 322.132 178.444C321.024 180.428 319.978 182.439 319.042 184.215C317.331 187.489 315.218 191.526 314.304 192.121C313.985 191.906 313.299 191.377 312.639 190.868C308.278 187.502 297.001 178.77 285.042 176.583C288.735 171.876 302.845 154.045 312.153 144.698L312.141 144.7ZM344.816 205.692C338.566 198.433 334.365 193.87 332.325 192.152C334.782 188.071 344.788 171.305 347.817 164.702C348.462 166.537 348.943 168.425 349.256 170.344C351.106 182.309 349.572 194.553 344.827 205.691L344.816 205.692Z" fill="black"/>
</svg>
